<svg width="15" height="15" viewBox="0 0 15 15" fill="none" xmlns="http://www.w3.org/2000/svg">
<g clip-path="url(#clip0_637_22368)">
<path d="M2.1777 11.0673C2.2045 10.8261 2.2179 10.7055 2.25439 10.5928C2.28677 10.4928 2.33251 10.3976 2.39038 10.3098C2.45561 10.2109 2.54141 10.1251 2.71302 9.95351L10.4167 2.24985C11.061 1.60552 12.1057 1.60552 12.75 2.24985C13.3944 2.89418 13.3944 3.93885 12.75 4.58319L5.04635 12.2868C4.87474 12.4585 4.78894 12.5443 4.69003 12.6095C4.60227 12.6673 4.5071 12.7131 4.40709 12.7455C4.29436 12.782 4.17376 12.7954 3.93256 12.8222L1.95834 13.0415L2.1777 11.0673Z" stroke="white" stroke-width="1.66667" stroke-linecap="round" stroke-linejoin="round"/>
</g>
<defs>
<clipPath id="clip0_637_22368">
<rect width="14" height="14" fill="white" transform="translate(0.5 0.5)"/>
</clipPath>
</defs>
</svg>
