<svg width="249" height="57" viewBox="0 0 249 57" fill="none" xmlns="http://www.w3.org/2000/svg">
<g clip-path="url(#clip0_2205_12)">
<path d="M175.24 17.67H175.6H175.96L176.68 17.69L177.4 17.71C177.64 17.71 177.88 17.75 178.12 17.76C178.19 17.76 178.26 17.77 178.34 17.78L178.41 17.68C178.58 17.51 178.95 17.22 179.52 16.82C180.09 16.42 180.78 15.94 181.58 15.36C182.38 14.79 183.25 14.19 184.19 13.56C185.13 12.93 186.12 12.27 187.15 11.59L188.44 10.73C190.84 9.07004 192.47 7.94004 193.33 7.32004C194.19 6.70004 194.64 6.20004 194.7 5.79004C194.81 5.22004 194.84 4.66004 194.79 4.12004C194.73 3.58004 194.56 3.22004 194.28 3.05004C193.88 2.65004 193.59 2.44004 193.42 2.41004C193.25 2.38004 192.85 2.48004 192.22 2.71004C189.99 3.40004 187.96 3.98004 186.13 4.47004C184.3 4.96004 182.57 5.36004 180.94 5.67004C179.31 5.99004 177.74 6.20004 176.23 6.31004C174.72 6.43004 173.19 6.48004 171.64 6.48004C170.21 6.48004 168.98 6.44004 167.95 6.35004C166.92 6.27004 165.89 6.14004 164.86 5.96004C164.06 5.79004 163.32 5.63004 162.63 5.49004C161.94 5.35004 161.46 5.28004 161.17 5.28004C160.88 5.28004 160.71 5.31004 160.66 5.37004C160.61 5.43004 160.54 5.68004 160.49 6.14004C160.43 6.36004 160.45 6.64004 160.53 6.98004C160.62 7.32004 160.72 7.60004 160.83 7.82004C160.94 8.05004 161.27 8.52004 161.82 9.25004C162.36 9.98004 162.95 10.73 163.58 11.5C164.21 12.27 164.77 12.97 165.25 13.6C165.73 14.23 166.01 14.54 166.06 14.54C166.17 14.54 166.12 14.34 165.89 13.94C165.66 13.54 165.4 13.08 165.12 12.57H165.21L164.78 11.97L164.61 11.63L163.41 10H167.95C169.84 9.95004 171.79 9.81004 173.82 9.58004C175.85 9.36004 177.95 9.02004 180.12 8.58004H180.03C180.66 8.41004 181.37 8.26004 182.17 8.12004C182.97 7.98004 183.68 7.91004 184.31 7.91004L181.48 9.97004C180.79 10.6 180.02 11.31 179.17 12.11C178.31 12.91 177.47 13.73 176.64 14.55C175.81 15.38 175.04 16.17 174.33 16.91C174.03 17.23 173.76 17.5 173.51 17.76C173.61 17.76 173.71 17.74 173.8 17.73L175.24 17.68V17.67Z" fill="url(#paint0_linear_2205_12)"/>
<path d="M175.45 21.93H175.11L174.43 21.92H174.09L173.75 21.93H173.44L169.94 22.54C169.82 22.71 168.05 25.31 167.88 25.54C167.76 25.71 167.61 25.9 167.41 26.1C167.21 26.3 166.99 26.54 166.77 26.83L166.17 27.6C165.43 28.63 164.65 29.74 163.86 30.94C163.06 32.14 162.3 33.38 161.59 34.67C160.87 35.96 160.2 37.24 159.58 38.53C158.95 39.82 158.41 41.03 157.95 42.17C157.49 43.37 157.21 44.46 157.09 45.43C156.98 46.4 157.12 47.09 157.52 47.49C157.81 47.78 158.06 47.9 158.29 47.88C158.52 47.85 158.89 47.64 159.4 47.24V47.33C159.69 46.99 159.86 46.63 159.91 46.26C159.97 45.89 159.91 45.59 159.74 45.36V45.45C159.45 45.33 159.38 45.03 159.53 44.55C159.67 44.06 160.17 42.96 161.03 41.25C161.94 39.48 162.83 37.88 163.69 36.45C164.55 35.02 165.42 33.68 166.3 32.42C167.19 31.16 168.1 29.96 169.04 28.82C169.98 27.68 171 26.53 172.08 25.39H171.99L174.59 22.62L175.46 21.96L175.45 21.93Z" fill="url(#paint1_linear_2205_12)"/>
<path d="M172.38 21.96C171.93 21.99 171.47 22.05 171.02 22.1C170.79 22.13 170.57 22.14 170.34 22.18L170.21 22.2L169.93 22.51L173.43 21.92L172.38 21.97V21.96Z" fill="url(#paint2_linear_2205_12)"/>
<path d="M231.01 1.72001C230.95 1.18001 230.78 0.820014 230.5 0.650014C230.1 0.250014 229.81 0.0400141 229.64 0.0100141C229.47 -0.0199859 229.07 0.0800141 228.44 0.310014C226.21 1.00001 224.18 1.58001 222.35 2.07001C220.52 2.56001 218.79 2.96001 217.16 3.27001C215.53 3.59001 213.96 3.80001 212.45 3.91001C210.94 4.03001 209.41 4.08001 207.86 4.08001C206.43 4.08001 205.2 4.04001 204.17 3.95001C203.14 3.87001 202.11 3.74001 201.08 3.56001C200.28 3.39001 199.54 3.23001 198.85 3.09001C198.16 2.95001 197.68 2.88001 197.39 2.88001C197.1 2.88001 196.93 2.91001 196.88 2.97001C196.83 3.03001 196.76 3.28001 196.71 3.74001C196.65 3.96001 196.67 4.24001 196.75 4.58001C196.84 4.92001 196.94 5.20001 197.05 5.42001C197.16 5.65001 197.49 6.12001 198.04 6.85001C198.58 7.58001 199.17 8.33002 199.8 9.10001C200.43 9.87001 200.99 10.57 201.47 11.2C201.95 11.83 202.23 12.14 202.28 12.14C202.39 12.14 202.34 11.94 202.11 11.54C201.88 11.14 201.62 10.68 201.34 10.17H201.43L201 9.57001L200.83 9.23001L199.63 7.60001H204.17C206.06 7.55001 208.01 7.41001 210.04 7.18001C212.07 6.96001 214.17 6.62001 216.34 6.18001H216.25C216.88 6.01001 217.59 5.86001 218.39 5.72001C219.19 5.58001 219.9 5.51001 220.53 5.51001L217.7 7.57001C217.01 8.20001 216.24 8.91001 215.39 9.71001C214.53 10.51 213.69 11.33 212.86 12.15C212.03 12.98 211.26 13.77 210.55 14.51C209.84 15.25 209.28 15.83 208.88 16.22L207.68 17.51C207.56 17.68 205.79 20.28 205.62 20.51C205.5 20.68 205.35 20.87 205.15 21.07C204.95 21.27 204.73 21.51 204.51 21.8L203.91 22.57C203.17 23.6 202.39 24.71 201.6 25.91C201.05 26.74 200.52 27.6 200.01 28.47C200.19 28.66 200.39 28.85 200.56 29.04C201.03 29.55 201.47 30.08 201.92 30.6C202.62 29.47 203.32 28.38 204.04 27.36C204.93 26.1 205.84 24.9 206.78 23.76C207.72 22.62 208.74 21.47 209.82 20.33H209.73L212.33 17.56L213.76 16.47L214.62 15.27C214.79 15.1 215.16 14.81 215.73 14.41C216.3 14.01 216.99 13.53 217.79 12.95C218.59 12.38 219.46 11.78 220.4 11.15C221.34 10.52 222.33 9.86001 223.36 9.18001L224.65 8.32001C227.05 6.66001 228.68 5.53001 229.54 4.91001C230.4 4.29001 230.85 3.79001 230.91 3.38001C231.02 2.81001 231.05 2.25001 231 1.71001L231.01 1.72001Z" fill="url(#paint3_linear_2205_12)"/>
<path d="M197.79 32.29C197.08 33.57 196.41 34.85 195.79 36.12C195.16 37.41 194.62 38.62 194.16 39.76C193.7 40.96 193.42 42.05 193.3 43.02C193.19 43.99 193.33 44.68 193.73 45.08C194.02 45.37 194.27 45.49 194.5 45.47C194.73 45.44 195.1 45.23 195.61 44.83V44.92C195.9 44.58 196.07 44.22 196.12 43.85C196.18 43.48 196.12 43.18 195.95 42.95V43.04C195.66 42.92 195.59 42.62 195.74 42.14C195.88 41.65 196.38 40.55 197.24 38.84C198.08 37.22 198.89 35.74 199.68 34.4C199.15 33.78 198.61 33.17 198.06 32.58C197.97 32.48 197.87 32.4 197.78 32.3L197.79 32.29Z" fill="url(#paint4_linear_2205_12)"/>
<path d="M76.2198 48.37C75.9298 48.43 75.6798 48.66 75.4498 49.06C75.1098 49.63 74.3598 50.33 73.2198 51.16C72.0798 51.99 70.8198 52.75 69.4498 53.43C66.9898 54.57 65.0798 55.16 63.7098 55.19C62.3398 55.22 61.1398 54.75 60.1098 53.78C58.7398 52.58 58.0398 50.68 58.0098 48.08C57.9798 45.48 58.6498 42.44 60.0198 38.95C61.0998 35.69 62.9898 31.95 65.6798 27.72C68.3698 23.49 71.5098 19.21 75.1098 14.86C76.1898 13.49 76.8198 12.52 76.9998 11.95C77.1698 11.38 77.0598 10.69 76.6598 9.89004C76.3698 9.43004 76.0398 9.11004 75.6698 8.90004C75.2998 8.70004 75.0298 8.66004 74.8598 8.77004C74.4598 8.94004 73.6998 9.43004 72.5898 10.23C71.4798 11.03 70.3498 11.89 69.1998 12.8C68.2298 13.66 67.0598 14.74 65.6898 16.06C64.3198 17.38 62.8298 18.82 61.2298 20.39C59.6298 21.96 57.9998 23.59 56.3398 25.28C54.6798 26.97 53.0798 28.61 51.5398 30.21C49.9998 31.81 48.5998 33.3 47.3398 34.67C46.0798 36.04 45.0498 37.19 44.2498 38.1C43.6198 38.96 43.0198 39.72 42.4498 40.37C41.8798 41.03 41.5398 41.41 41.4198 41.53C41.0798 41.76 40.9898 41.73 41.1598 41.44C41.2198 41.15 41.5998 40.36 42.3198 39.04C43.0298 37.73 43.8798 36.2 44.8498 34.45C45.8198 32.71 46.8198 30.92 47.8498 29.09C48.8798 27.26 49.7598 25.69 50.5098 24.38C51.5898 22.49 52.4098 21.05 52.9498 20.05C53.4898 19.05 53.8798 18.31 54.1098 17.82C54.3398 17.33 54.4398 16.99 54.4098 16.79C54.3798 16.59 54.3098 16.32 54.1998 15.98C53.9698 15.35 53.5998 14.78 53.0898 14.27C52.5798 13.76 52.1198 13.5 51.7198 13.5C51.5498 13.5 51.0098 14.01 50.0898 15.04C49.7998 15.5 49.2498 16.13 48.4198 16.93C47.5898 17.73 46.8598 18.53 46.2298 19.33C44.2298 21.27 42.3898 23.12 40.6998 24.86C39.0098 26.6 37.3898 28.32 35.8098 30C34.2398 31.69 32.6798 33.39 31.1398 35.1C29.5998 36.81 28.0198 38.64 26.4298 40.59C26.0898 40.99 25.9198 41.18 25.9198 41.15C25.9198 41.12 26.1198 40.79 26.5198 40.16C29.9498 34.79 32.6598 30.19 34.6598 26.36C36.6598 22.53 37.8898 19.67 38.3498 17.79C38.7498 16.48 38.9098 15.3 38.8198 14.28C38.7298 13.25 38.4598 12.42 38.0098 11.79C37.4398 10.99 36.8098 10.46 36.1198 10.2C35.4298 9.94004 34.2598 9.79004 32.6098 9.73004C26.0398 9.44004 16.4398 11.82 3.8098 16.84C3.0098 17.13 2.2698 17.41 1.5798 17.7C0.889805 17.99 0.489805 18.13 0.379805 18.13C0.0398047 18.3 -0.0601953 18.63 0.0798047 19.12C0.219805 19.61 0.519805 20.11 0.979805 20.62C1.3198 21.08 1.6098 21.34 1.8398 21.39C2.0698 21.45 2.5298 21.48 3.2098 21.48C3.5498 21.48 4.1198 21.44 4.9198 21.35C5.7198 21.27 6.5198 21.17 7.3198 21.05C8.1198 20.94 8.8198 20.82 9.4198 20.71C10.0198 20.6 10.3498 20.51 10.4098 20.45C10.5798 20.34 10.5098 20.08 10.1998 19.68C9.8898 19.28 9.5298 18.94 9.1298 18.65L8.0998 18.14L10.5898 17.11C11.6698 16.6 12.5998 16.18 13.3798 15.87C14.1498 15.56 14.8698 15.27 15.5198 15.01C16.1798 14.75 16.7898 14.53 17.3598 14.32C17.9298 14.12 18.6198 13.91 19.4198 13.68C27.4798 11.05 32.9098 10.2 35.7098 11.11C36.5098 11.4 37.0398 11.7 37.2998 12.01C37.5598 12.32 37.6598 12.82 37.5998 13.51C37.6598 14.2 37.5698 14.94 37.3398 15.74C37.1098 16.54 36.6798 17.54 36.0498 18.74C35.4198 19.94 34.5398 21.4 33.3898 23.11C32.2498 24.82 30.7898 26.91 29.0198 29.37C27.5298 31.37 26.3598 33 25.5098 34.26C24.6498 35.52 23.9098 36.63 23.2798 37.6C22.6498 38.57 22.0698 39.52 21.5198 40.43C20.9798 41.35 20.2798 42.49 19.4198 43.86C18.0998 45.92 17.0898 47.56 16.3798 48.79C15.6598 50.02 15.1898 51 14.9698 51.75C14.7398 52.49 14.7098 53.08 14.8798 53.51C15.0498 53.94 15.3398 54.35 15.7398 54.75C16.3098 55.32 16.8398 55.62 17.3298 55.65C17.8098 55.68 18.0598 55.66 18.0598 55.61C18.2898 55.32 18.5198 55.04 18.7498 54.75C18.9198 54.46 19.1098 54.16 19.3098 53.85C19.5098 53.53 19.6998 53.21 19.8698 52.86C22.2698 49.03 25.2098 44.92 28.6998 40.52C32.1798 36.12 36.0698 31.66 40.3598 27.15C42.5298 24.92 43.9298 23.52 44.5598 22.95C45.1898 22.38 45.2698 22.44 44.8198 23.12C44.0198 24.61 43.1498 26.38 42.2098 28.43C41.2698 30.49 40.3798 32.57 39.5498 34.69C38.7198 36.81 38.0198 38.8 37.4498 40.69C36.8798 42.58 36.5598 44.06 36.5098 45.15C36.3898 45.72 36.3798 46.11 36.4698 46.31C36.5598 46.51 36.7998 46.78 37.1998 47.12C37.4898 47.29 37.7298 47.45 37.9298 47.59C38.1298 47.73 38.2898 47.8 38.3998 47.8C38.6298 47.8 39.1598 47.36 39.9898 46.47C40.8198 45.59 41.7498 44.4 42.7798 42.91C43.9798 41.42 45.6098 39.52 47.6698 37.21C49.7298 34.9 51.8398 32.54 54.0098 30.14C54.7498 29.28 55.7798 28.21 57.0998 26.93C58.4098 25.64 59.6998 24.4 60.9598 23.2C62.2198 22 63.3198 21 64.2598 20.2C65.1998 19.4 65.6698 19.03 65.6698 19.09C65.6698 19.15 65.5398 19.36 65.2798 19.73C65.0198 20.1 64.6898 20.54 64.2898 21.06C63.4898 22.2 62.6898 23.52 61.8898 25C61.0898 26.49 60.3198 27.97 59.5798 29.46C58.8398 30.95 58.1798 32.4 57.6098 33.83C57.0398 35.26 56.6098 36.52 56.3198 37.6C55.8598 39.6 55.5598 41.56 55.4198 43.47C55.2798 45.39 55.3798 47 55.7198 48.31C56.0098 50.48 56.7298 52.27 57.9098 53.67C59.0798 55.07 60.5198 56 62.2398 56.46C63.5498 56.8 65.1098 56.73 66.9098 56.25C68.7098 55.76 70.5198 54.92 72.3498 53.72C73.8898 52.58 75.0798 51.58 75.9098 50.72C76.7398 49.86 77.0698 49.21 76.8998 48.75C76.7798 48.46 76.5898 48.35 76.2998 48.41L76.2198 48.37Z" fill="#00131A"/>
<path d="M123.02 32.17C123.65 31.66 124.05 31.28 124.22 31.06C124.39 30.83 124.45 30.55 124.39 30.2C124.33 29.91 124.27 29.66 124.22 29.43C124.16 29.2 124.08 29.09 123.96 29.09C122.42 29.43 121.1 29.69 120.02 29.86C118.93 30.03 117.88 30.12 116.85 30.12C116.05 30.12 115.53 30.11 115.31 30.08C115.08 30.05 114.97 30 114.97 29.91C114.97 29.82 115 29.7 115.06 29.52C115.12 29.35 115.06 29.12 114.89 28.83C114.43 28.2 114 27.9 113.6 27.93C113.2 27.96 113.03 28.35 113.09 29.09C112.97 29.43 112.7 29.95 112.28 30.63C111.86 31.31 111.18 32.2 110.27 33.29C107.53 37 106.16 38.66 106.16 38.26C106.33 37.92 106.53 37.57 106.76 37.23C106.93 36.94 107.13 36.59 107.36 36.16C107.59 35.73 107.84 35.29 108.13 34.83C108.53 33.97 108.86 33.26 109.12 32.69C109.38 32.12 109.55 31.63 109.63 31.23C109.72 30.83 109.73 30.47 109.67 30.16C109.61 29.85 109.5 29.52 109.33 29.17C108.87 28.54 108.49 28.03 108.17 27.63C107.85 27.23 107.55 27.03 107.27 27.03C106.99 27.03 106.6 27.45 106.11 28.27C105.62 29.1 105.1 30.16 104.52 31.44C104.05 32.51 103.53 33.69 103 34.93C102.43 35.35 101.83 35.8 101.18 36.28C99.6399 37.42 98.0399 38.59 96.3799 39.79C94.7199 40.99 93.3799 41.93 92.3499 42.62C92.2299 42.74 91.9299 42.92 91.4499 43.18C90.9599 43.44 90.6899 43.54 90.6399 43.48C90.5799 43.42 90.6699 43.12 90.8999 42.58C91.1299 42.04 91.3599 41.54 91.5899 41.08C91.9899 40.28 92.5899 39.22 93.3899 37.91C94.1899 36.6 95.0599 35.21 95.9999 33.75C96.9399 32.29 97.8999 30.83 98.8699 29.38C99.8399 27.93 100.7 26.62 101.44 25.48L104.7 20.51L108.64 20.17C111.67 19.88 114.88 19.69 118.28 19.57C121.68 19.46 124.69 19.4 127.32 19.4C128.63 19.4 129.53 19.34 130.02 19.23C130.51 19.12 130.75 19 130.75 18.89C130.75 18.83 130.74 18.78 130.71 18.72C130.68 18.66 130.5 18.61 130.15 18.55C129.75 18.49 128.79 18.45 127.28 18.42C125.77 18.39 123.98 18.38 121.92 18.38C119.86 18.38 117.69 18.39 115.41 18.42C113.12 18.45 111.01 18.55 109.07 18.72C108.67 18.78 108.3 18.81 107.96 18.81H107.02C106.68 18.81 106.36 18.84 106.08 18.9C105.96 18.84 106.02 18.66 106.25 18.34C106.48 18.03 106.76 17.61 107.11 17.1C107.51 16.64 107.89 16.1 108.27 15.47C108.64 14.84 108.91 14.39 109.08 14.1L109.42 12.9L108.82 11.61C108.7 11.21 108.49 10.87 108.18 10.58C107.86 10.29 107.65 10.1 107.54 9.98C107.37 9.92 107.2 9.92 107.03 9.98C106.86 10.04 106.6 10.25 106.26 10.62C105.92 10.99 105.46 11.58 104.89 12.38C104.32 13.18 103.55 14.3 102.58 15.72L100.18 19.23C98.4699 19.46 96.6199 19.66 94.6499 19.83C92.6799 20 90.8499 20.19 89.1599 20.39C87.4799 20.59 86.0499 20.79 84.8699 20.99C83.6999 21.19 82.9999 21.43 82.7699 21.72C82.5999 22.01 82.5099 22.41 82.5099 22.92C82.5099 23.43 82.5699 23.84 82.6799 24.12C83.0199 24.92 83.6799 25.23 84.6499 25.06C85.6199 24.89 87.3399 24.58 89.7899 24.12C90.9299 23.89 91.6199 23.71 91.8499 23.56C92.0799 23.42 91.9299 23.15 91.4199 22.75C91.1299 22.58 91.0199 22.48 91.0799 22.45C91.1399 22.42 91.3099 22.41 91.5899 22.41C91.8199 22.41 92.2299 22.37 92.8299 22.28C93.4299 22.19 93.9899 22.1 94.4999 21.98C95.0099 21.87 95.5399 21.75 96.0899 21.64C96.6299 21.53 97.0799 21.44 97.4199 21.38L98.8799 21.21L95.7899 26.1C94.6999 27.76 93.6499 29.49 92.6199 31.29C91.5899 33.09 90.6599 34.8 89.8299 36.43C89.7599 36.56 89.6999 36.68 89.6399 36.81C88.9599 37.35 88.2199 37.97 87.3899 38.7C86.7599 39.27 85.9899 39.97 85.0799 40.8C84.1699 41.63 83.2799 42.42 82.4199 43.16C81.5599 43.9 80.8199 44.53 80.1899 45.05C79.5599 45.56 79.2199 45.76 79.1599 45.65C79.0399 45.54 79.1999 45.05 79.6299 44.19C80.0599 43.33 80.5899 42.35 81.2099 41.23C81.8299 40.11 82.4799 39.02 83.1399 37.93C83.7999 36.85 84.2999 36.04 84.6399 35.53C84.8099 35.19 84.7999 34.76 84.5999 34.24C84.3999 33.73 84.1299 33.25 83.7899 32.83C83.4499 32.41 83.0899 32.07 82.7199 31.84C82.3499 31.61 82.0799 31.61 81.9099 31.84L80.8799 33.73C80.8799 33.16 80.7399 32.36 80.4499 31.33C80.1599 30.3 79.8199 29.67 79.4199 29.44C78.5599 29.04 77.4599 28.98 76.1199 29.27C74.7799 29.56 73.4099 30.11 72.0099 30.94C70.6099 31.77 69.2399 32.78 67.8999 33.98C66.5599 35.18 65.4599 36.5 64.5999 37.92C63.1099 40.26 62.3399 42.11 62.2899 43.45C62.2299 44.79 62.7999 46.06 63.9999 47.26C64.4599 47.72 64.8599 47.99 65.1999 48.07C65.5399 48.16 65.9899 48.03 66.5299 47.68C67.0699 47.34 67.8199 46.75 68.7599 45.92C69.6999 45.09 71.0299 43.93 72.7499 42.45C73.7199 41.65 74.6599 40.89 75.5799 40.18C76.4899 39.47 77.0899 38.99 77.3799 38.76L78.8399 37.65L75.9299 41.94C75.5299 42.57 75.3299 43.27 75.3299 44.04C75.3299 44.81 75.4999 45.54 75.8399 46.23C76.1799 46.92 76.6699 47.46 77.2999 47.86C77.9299 48.26 78.6699 48.35 79.5299 48.12C80.0399 48.01 80.8299 47.46 81.8899 46.49C82.9499 45.52 84.0999 44.39 85.3599 43.1C86.2499 42.19 87.1099 41.27 87.9599 40.34C87.8899 40.49 87.8199 40.64 87.7599 40.78C87.1899 42.07 86.7899 42.99 86.5599 43.57C86.0999 44.66 85.7899 45.4 85.6199 45.8C85.4499 46.2 85.6799 46.66 86.3099 47.17C86.5999 47.46 87.0399 47.8 87.6399 48.2C88.2399 48.6 88.6499 48.71 88.8799 48.54C91.5599 46.2 94.5199 43.71 97.7499 41.08C99.1699 39.92 100.55 38.75 101.9 37.57C101.53 38.42 101.16 39.26 100.79 40.05C99.9299 41.88 99.2999 43.31 98.8999 44.34C98.4999 45.37 98.2699 46.18 98.2099 46.78C98.1499 47.38 98.2199 47.84 98.4199 48.15C98.6199 48.46 98.9499 48.82 99.4099 49.22C99.9799 49.79 100.38 50.02 100.61 49.91C100.73 49.91 100.88 49.68 101.08 49.22C101.28 48.76 101.61 48.22 102.07 47.59C102.36 47.08 102.81 46.32 103.44 45.32C104.07 44.32 104.78 43.24 105.58 42.06C106.38 40.89 107.22 39.67 108.11 38.42C108.99 37.16 109.81 36.04 110.55 35.03C111.29 34.03 111.92 33.19 112.44 32.5C112.95 31.81 113.24 31.44 113.3 31.39C113.24 31.51 113.24 31.78 113.3 32.2C113.36 32.63 113.49 33.09 113.69 33.57C113.89 34.06 114.18 34.49 114.55 34.86C114.92 35.23 115.36 35.39 115.88 35.33C116.85 35.22 118.05 34.85 119.48 34.22C120.91 33.59 122.11 32.91 123.08 32.16L123.02 32.17ZM77.2499 36.88C75.6499 37.97 73.6499 39.25 71.2499 40.74C69.5899 41.71 68.4499 42.34 67.8199 42.63C67.1899 42.92 66.8499 42.95 66.7899 42.72C67.0799 42.21 67.4799 41.62 67.9899 40.96C68.4999 40.3 69.0699 39.63 69.6999 38.95C70.3299 38.26 70.9899 37.62 71.6699 37.02C72.3499 36.42 73.0099 35.89 73.6399 35.43C75.0099 34.46 76.2999 33.87 77.4999 33.67C78.6999 33.47 79.3599 33.77 79.4699 34.57C79.5799 35.03 78.8399 35.8 77.2399 36.88H77.2499Z" fill="#00131A"/>
<path d="M132.67 37.91C133.67 36.94 134.51 36.07 135.2 35.3C135.89 34.53 136.41 33.87 136.79 33.33C137.16 32.79 137.32 32.46 137.26 32.34C137.14 32.23 135.89 33.11 133.49 35C131.72 36.43 130.05 37.77 128.48 39.03C126.91 40.29 125.54 41.39 124.37 42.33C123.2 43.27 122.25 44 121.54 44.52C120.83 45.03 120.44 45.24 120.38 45.12C120.32 45.06 120.48 44.65 120.85 43.88C121.22 43.11 121.81 42.18 122.61 41.09C122.84 40.69 123.27 39.99 123.9 38.99C124.53 37.99 125.17 36.98 125.83 35.95C126.49 34.92 127.07 33.99 127.59 33.16C128.1 32.33 128.39 31.86 128.45 31.75C128.56 31.46 128.48 31.12 128.19 30.72C127.9 30.32 127.7 29.98 127.59 29.69C127.3 29.35 127.09 29.15 126.95 29.09C126.81 29.03 126.56 29.15 126.22 29.43C125.71 29.72 125.02 30.46 124.16 31.66C123.3 32.86 122.45 34.22 121.59 35.73C120.73 37.25 119.92 38.79 119.15 40.36C118.38 41.93 117.82 43.23 117.48 44.26C117.19 44.95 117.31 45.73 117.82 46.62C118.33 47.51 118.96 47.98 119.71 48.03C120.17 48.03 120.81 47.77 121.64 47.26C122.47 46.75 123.37 46.1 124.34 45.33C125.31 44.56 126.27 43.76 127.21 42.93C128.15 42.1 128.94 41.4 129.57 40.83C130.65 39.86 131.7 38.89 132.7 37.92L132.67 37.91Z" fill="#00131A"/>
<path d="M245.57 25.7C243.8 22.36 241.12 19.49 237.8 17.66C234.49 15.83 230.64 15.09 226.89 15.35C223.14 15.61 219.46 16.83 216.35 18.93L215.87 16.06L215.39 18.93L212.52 19.41L215.39 19.89L215.87 22.76L216.35 19.89L219.22 19.41L216.5 18.96C219.6 16.94 223.23 15.78 226.91 15.57C230.62 15.35 234.41 16.13 237.64 17.96C240.87 19.79 243.47 22.64 245.16 25.92C246.87 29.2 247.69 32.94 247.42 36.62C247.35 37.54 247.21 38.45 247.01 39.34C246.8 40.23 246.52 41.11 246.17 41.96C245.48 43.66 244.48 45.23 243.31 46.64C240.93 49.44 237.76 51.56 234.28 52.69C232.54 53.26 230.72 53.57 228.9 53.59C227.99 53.59 227.08 53.54 226.18 53.4L225.51 53.29L224.84 53.13C224.62 53.08 224.39 53.03 224.18 52.97L223.53 52.77C220.03 51.68 216.9 49.61 214.16 47.15C211.41 44.69 209.03 41.83 206.74 38.89C204.86 36.49 203.01 34.04 201.01 31.7C200.85 31.97 200.68 32.22 200.52 32.49C200.45 32.61 200.38 32.73 200.31 32.86C202.2 35.05 203.98 37.36 205.81 39.64C208.14 42.57 210.61 45.46 213.46 47.96C214.88 49.21 216.41 50.36 218.04 51.34C219.67 52.32 221.42 53.13 223.26 53.68L223.95 53.88C224.18 53.94 224.42 53.99 224.65 54.04L225.35 54.2L226.06 54.31C227.01 54.44 227.97 54.5 228.93 54.48C230.85 54.43 232.75 54.08 234.56 53.47C238.18 52.25 241.44 50.02 243.87 47.09C245.07 45.61 246.09 43.98 246.79 42.2C247.14 41.32 247.43 40.4 247.64 39.47C247.84 38.54 247.97 37.6 248.03 36.65C248.27 32.85 247.37 29.03 245.59 25.69L245.57 25.7Z" fill="#00131A"/>
<path d="M172.57 18.85C172.19 18.88 171.81 18.92 171.43 18.95C171.19 18.97 170.95 18.99 170.71 19.02L170 19.13L169.29 19.24C169.05 19.28 168.82 19.31 168.58 19.37L167.17 19.69C166.7 19.8 166.24 19.95 165.78 20.08L165.09 20.28L164.41 20.53C163.96 20.7 163.5 20.85 163.06 21.04C161.49 21.68 144.96 32.46 139.91 35.74C139.63 34.44 139.46 33.42 139.4 32.68C139.34 31.94 139.31 31.34 139.31 30.88C139.31 29.28 139.05 28.62 138.54 28.91C138.42 29.03 138.35 29.44 138.33 30.15C138.3 30.86 138.29 31.77 138.29 32.85L138.55 36.62L136.58 37.73C135.89 38.19 135.18 38.69 134.44 39.23C133.7 39.77 132.98 40.29 132.3 40.77C131.61 41.26 131 41.73 130.46 42.18C129.92 42.64 129.53 43.01 129.3 43.29C128.56 43.98 128.17 44.55 128.14 45C128.11 45.46 128.44 46.03 129.13 46.71C129.76 47.45 130.24 47.82 130.59 47.82C130.71 47.82 131.03 47.58 131.58 47.09C132.12 46.61 132.71 45.96 133.34 45.16C134.08 44.42 134.78 43.65 135.44 42.85C136.1 42.05 136.71 41.42 137.28 40.96L139.17 39.33L139.6 40.79C139.94 41.76 140.37 42.72 140.89 43.66C141.4 44.6 141.95 45.4 142.52 46.06C143.09 46.72 143.72 47.2 144.41 47.52C145.1 47.84 145.78 47.85 146.47 47.56C147.67 47.16 148.77 46.59 149.77 45.85C150.77 45.11 151.5 44.43 151.96 43.84C152.42 43.24 152.5 42.83 152.22 42.6C151.93 42.37 151.11 42.54 149.73 43.11C148.41 43.68 147.26 43.87 146.26 43.67C145.26 43.47 144.39 43.06 143.65 42.43C142.91 41.8 142.29 41.06 141.81 40.2C141.39 39.46 141.08 38.74 140.85 38.04C146.02 34.45 161.2 23.76 163.78 22.64C164.19 22.45 164.63 22.31 165.05 22.15L165.69 21.91L166.34 21.71C166.78 21.58 167.21 21.43 167.65 21.33L168.98 21.02C169.2 20.96 169.42 20.93 169.65 20.89L170.32 20.78L170.86 20.69L171.77 19.71C172 19.48 172.29 19.19 172.62 18.84L172.57 18.85Z" fill="#00131A"/>
<path d="M199.08 29.57C197.96 28.38 196.8 27.23 195.54 26.18C194.08 24.95 192.48 23.87 190.82 22.92C187.48 21.04 183.8 19.79 180.02 19.18L178.6 18.98C178.2 18.94 177.79 18.91 177.39 18.87L176.6 19.97L176.04 20.39H176.38C176.61 20.39 176.83 20.42 177.06 20.44C177.51 20.48 177.97 20.5 178.42 20.54L179.78 20.72C183.39 21.26 186.91 22.42 190.11 24.17C191.7 25.06 193.23 26.06 194.65 27.23C195.97 28.31 197.2 29.5 198.38 30.75C198.38 30.75 198.38 30.73 198.39 30.73C198.61 30.33 198.84 29.95 199.07 29.56L199.08 29.57Z" fill="#00131A"/>
<path d="M171.61 20.6C172.06 20.56 172.51 20.49 172.97 20.46L174.02 20.41L176.6 19.97L177.39 18.87C177.32 18.87 177.25 18.86 177.17 18.85C176.93 18.83 176.69 18.8 176.45 18.8L175.73 18.78L175.01 18.76H174.65H174.29L172.85 18.81C172.75 18.81 172.65 18.83 172.56 18.84C172.23 19.18 171.94 19.48 171.71 19.71L170.8 20.69L170.93 20.67C171.16 20.64 171.38 20.62 171.61 20.59V20.6Z" fill="#00131A"/>
<path d="M174.02 20.41L174.33 20.4L174.67 20.38L175.02 20.39L175.7 20.4H176.04L176.6 19.98L174.02 20.41Z" fill="#00131A"/>
<path d="M200.99 31.7C200.54 31.18 200.1 30.65 199.63 30.14C199.45 29.94 199.26 29.76 199.08 29.57C198.85 29.96 198.62 30.34 198.4 30.74C198.4 30.74 198.4 30.76 198.39 30.76C198.48 30.86 198.58 30.94 198.67 31.04C199.22 31.63 199.76 32.24 200.29 32.86C200.36 32.74 200.43 32.61 200.5 32.49C200.66 32.22 200.83 31.97 200.99 31.7Z" fill="#00131A"/>
<path d="M132.08 29.93L131.34 25.49L126.9 24.75L131.34 24.01L132.08 19.57L132.83 24.01L137.26 24.75L132.83 25.49L132.08 29.93Z" fill="#00131A"/>
</g>
<defs>
<linearGradient id="paint0_linear_2205_12" x1="158.56" y1="10.08" x2="194.8" y2="10.08" gradientUnits="userSpaceOnUse">
<stop stop-color="#FFE471"/>
<stop offset="1" stop-color="#FFBA22"/>
</linearGradient>
<linearGradient id="paint1_linear_2205_12" x1="89.1999" y1="34.89" x2="279.78" y2="34.89" gradientUnits="userSpaceOnUse">
<stop stop-color="#FFE471"/>
<stop offset="1" stop-color="#FFBA22"/>
</linearGradient>
<linearGradient id="paint2_linear_2205_12" x1="157.03" y1="22.21" x2="193.27" y2="22.21" gradientUnits="userSpaceOnUse">
<stop stop-color="#FFE471"/>
<stop offset="1" stop-color="#FFBA22"/>
</linearGradient>
<linearGradient id="paint3_linear_2205_12" x1="183.67" y1="15.3" x2="274.11" y2="15.3" gradientUnits="userSpaceOnUse">
<stop stop-color="#FFE471"/>
<stop offset="1" stop-color="#FFBA22"/>
</linearGradient>
<linearGradient id="paint4_linear_2205_12" x1="193.26" y1="38.88" x2="229.5" y2="38.88" gradientUnits="userSpaceOnUse">
<stop stop-color="#FFE471"/>
<stop offset="1" stop-color="#FFBA22"/>
</linearGradient>
<clipPath id="clip0_2205_12">
<rect width="248.05" height="56.64" fill="white"/>
</clipPath>
</defs>
</svg>
