<svg width="63" height="63" viewBox="0 0 63 63" fill="none" xmlns="http://www.w3.org/2000/svg">
<path d="M43.8318 24.0262C42.5693 24.164 41.4816 24.7349 40.603 25.5396V13.3654C40.603 11.6895 39.2446 10.331 37.5687 10.331C35.8928 10.331 34.5343 11.6895 34.5343 13.3654V9.06119C34.5343 7.38529 33.1759 6.02686 31.5 6.02686C29.8241 6.02686 28.4657 7.38529 28.4657 9.06119V13.3654C28.4657 11.6895 27.1072 10.331 25.4313 10.331C23.7554 10.331 22.397 11.6895 22.397 13.3654L22.2739 25.4289C21.4175 24.6832 20.3741 24.159 19.1682 24.0262C16.4686 23.7308 14.9281 25.6528 15.3784 26.652C15.4522 26.8169 18.4373 29.1892 18.4373 33.6853C18.4373 38.1815 17.2438 45.3674 19.4611 50.0112C21.2133 53.678 25.4978 56.9732 31.4975 56.9732C37.4973 56.9732 41.7843 53.678 43.534 50.0112C45.7538 45.3649 44.5577 38.1815 44.5577 33.6853C44.5577 29.1892 47.5429 26.8193 47.6167 26.652C48.067 25.6504 46.5265 23.7284 43.8268 24.0262H43.8318Z" fill="#00131A"/>
<path d="M40.2363 43.0074C40.2363 43.0074 36.3259 47.442 31.5 47.442C26.6741 47.442 22.7637 43.0074 22.7637 43.0074C22.7637 43.0074 26.6741 38.5728 31.5 38.5728C36.3259 38.5728 40.2363 43.0074 40.2363 43.0074Z" stroke="white" stroke-width="1.2" stroke-linecap="round" stroke-linejoin="round"/>
<path d="M34.3276 39.1018C35.0364 39.8204 35.4744 40.8072 35.4744 41.895C35.4744 44.0901 33.6952 45.8718 31.4975 45.8718C29.2999 45.8718 27.5207 44.0926 27.5207 41.895C27.5207 40.8195 27.9489 39.8426 28.6428 39.1264" stroke="white" stroke-width="1.2" stroke-linecap="round" stroke-linejoin="round"/>
<path d="M33.4072 41.895C33.4072 42.9483 32.5533 43.8022 31.5 43.8022C30.4467 43.8022 29.5928 42.9483 29.5928 41.895C29.5928 40.8417 30.4467 39.9878 31.5 39.9878C32.5533 39.9878 33.4072 40.8417 33.4072 41.895Z" fill="white"/>
<path d="M32.5361 41.8951C32.5361 42.466 32.0734 42.9311 31.5 42.9311C30.9266 42.9311 30.464 42.4685 30.464 41.8951C30.464 41.3217 30.9266 40.859 31.5 40.859C32.0734 40.859 32.5361 41.3217 32.5361 41.8951Z" fill="#00131A"/>
<path d="M31.5 49.7504L31.8076 51.5788L33.6361 51.8865L31.8076 52.1916L31.5 54.0226L31.1924 52.1916L29.3639 51.8865L31.1924 51.5788L31.5 49.7504Z" fill="white"/>
<path d="M25.6971 48.8029L25.9186 50.1244L27.2377 50.3459L25.9186 50.5673L25.6971 51.8864L25.4756 50.5673L24.1541 50.3459L25.4756 50.1244L25.6971 48.8029Z" fill="white"/>
<path d="M37.3029 48.8029L37.5244 50.1244L38.8459 50.3459L37.5244 50.5673L37.3029 51.8864L37.0814 50.5673L35.7624 50.3459L37.0814 50.1244L37.3029 48.8029Z" fill="white"/>
<path d="M31.5 36.2644L31.1924 34.4359L29.3639 34.1283L31.1924 33.8207L31.5 31.9922L31.8076 33.8207L33.6361 34.1283L31.8076 34.4359L31.5 36.2644Z" fill="white"/>
<path d="M37.3029 37.2094L37.0814 35.8903L35.7624 35.6688L37.0814 35.4474L37.3029 34.1283L37.5244 35.4474L38.8459 35.6688L37.5244 35.8903L37.3029 37.2094Z" fill="white"/>
<path d="M25.6971 37.2094L25.4756 35.8903L24.1541 35.6688L25.4756 35.4474L25.6971 34.1283L25.9186 35.4474L27.2377 35.6688L25.9186 35.8903L25.6971 37.2094Z" fill="white"/>
</svg>
