<svg width="24" height="24" viewBox="0 0 24 24" fill="none" xmlns="http://www.w3.org/2000/svg">
<g clip-path="url(#clip0_629_14991)">
<path fill-rule="evenodd" clip-rule="evenodd" d="M7.20008 2.33783C8.49879 2.04921 10.0743 1.95001 11.95 1.95001C13.8257 1.95001 15.4012 2.04921 16.6999 2.33783C18.01 2.62898 19.0988 3.12601 19.9364 3.96359C20.774 4.80117 21.271 5.89003 21.5622 7.20008C21.8508 8.49879 21.95 10.0743 21.95 11.95C21.95 13.8257 21.8508 15.4012 21.5622 16.6999C21.271 18.01 20.774 19.0988 19.9364 19.9364C19.0988 20.774 18.01 21.271 16.6999 21.5622C15.4012 21.8508 13.8257 21.95 11.95 21.95C10.0743 21.95 8.49879 21.8508 7.20008 21.5622C5.89003 21.271 4.80117 20.774 3.96359 19.9364C3.12601 19.0988 2.62898 18.01 2.33783 16.6999C2.04921 15.4012 1.95001 13.8257 1.95001 11.95C1.95001 10.0743 2.04921 8.49879 2.33783 7.20008C2.62898 5.89003 3.12601 4.80117 3.96359 3.96359C4.80117 3.12601 5.89003 2.62898 7.20008 2.33783ZM8.95001 11.45C8.95001 10.0693 10.0693 8.95001 11.45 8.95001C12.8307 8.95001 13.95 10.0693 13.95 11.45C13.95 12.8307 12.8307 13.95 11.45 13.95C10.0693 13.95 8.95001 12.8307 8.95001 11.45ZM11.45 6.95001C8.96473 6.95001 6.95001 8.96473 6.95001 11.45C6.95001 13.9353 8.96473 15.95 11.45 15.95C12.3305 15.95 13.152 15.6971 13.8457 15.26L15.2429 16.6571C15.6334 17.0476 16.2666 17.0476 16.6571 16.6571C17.0476 16.2666 17.0476 15.6334 16.6571 15.2429L15.26 13.8457C15.6971 13.152 15.95 12.3305 15.95 11.45C15.95 8.96473 13.9353 6.95001 11.45 6.95001Z" fill="#00131A"/>
</g>
<defs>
<clipPath id="clip0_629_14991">
<rect width="24" height="24" fill="white"/>
</clipPath>
</defs>
</svg>
