<svg width="22" height="22" viewBox="0 0 22 22" fill="none" xmlns="http://www.w3.org/2000/svg">
<g clip-path="url(#clip0_637_19345)">
<path d="M1.375 5.95832C1.375 3.17388 3.63223 0.916656 6.41667 0.916656C9.20113 0.916656 11.4583 3.17388 11.4583 5.95832C11.4583 8.74276 9.20113 11 6.41667 11C3.63223 11 1.375 8.74276 1.375 5.95832Z" fill="#00131A" fill-opacity="0.65"/>
<path d="M13.2916 5.95832C13.2916 7.33363 12.8877 8.61463 12.1921 9.68916C13.0876 10.5036 14.2775 11 15.5833 11C18.3677 11 20.6249 8.74276 20.6249 5.95832C20.6249 3.17388 18.3677 0.916656 15.5833 0.916656C14.2775 0.916656 13.0876 1.41306 12.1921 2.22745C12.8877 3.30202 13.2916 4.58301 13.2916 5.95832Z" fill="#00131A" fill-opacity="0.65"/>
<path d="M0 16.5C0 14.475 1.64162 12.8333 3.66667 12.8333H9.16667C11.1917 12.8333 12.8333 14.475 12.8333 16.5V20.1667C12.8333 20.673 12.4229 21.0833 11.9167 21.0833H0.916667C0.410406 21.0833 0 20.673 0 20.1667V16.5Z" fill="#00131A" fill-opacity="0.65"/>
<path d="M14.6667 16.5V21.0833H21.0833C21.5895 21.0833 22 20.673 22 20.1667V16.5C22 14.475 20.3583 12.8333 18.3333 12.8333H13.2662C14.137 13.8064 14.6667 15.0914 14.6667 16.5Z" fill="#00131A" fill-opacity="0.65"/>
</g>
<defs>
<clipPath id="clip0_637_19345">
<rect width="22" height="22" fill="white"/>
</clipPath>
</defs>
</svg>
